<?xml version="1.0" encoding="utf-8"?>
<!-- Generator: Adobe Illustrator 25.2.3, SVG Export Plug-In . SVG Version: 6.00 Build 0)  -->
<svg version="1.1" id="Layer_1" xmlns="http://www.w3.org/2000/svg" xmlns:xlink="http://www.w3.org/1999/xlink" x="0px" y="0px"
	 viewBox="0 0 24 24" style="enable-background:new 0 0 24 24;" xml:space="preserve">
<style type="text/css">
	.st0{fill:#D93856;}
</style>
<g>
	<path class="st0" d="M24,6.6c0-0.4,0-0.8-0.1-1.2C23.3,2.3,20.6,0,17.4,0c-3.6,0-7.2,0-10.7,0C6.1,0,5.5,0.1,5,0.2
		C2.1,0.9,0,3.6,0,6.5c0,3.7,0,7.3,0,11c0,0.4,0,0.8,0.1,1.1C0.8,21.8,3.4,24,6.7,24c1.8,0,3.6,0,5.3,0c1.8,0,3.6,0,5.4,0
		c0.4,0,0.8,0,1.2-0.1c3.1-0.5,5.4-3.3,5.4-6.4C24,13.8,24,10.2,24,6.6z M22.2,17.4c0,2-1.2,3.8-3.1,4.5c-0.5,0.2-1.1,0.3-1.7,0.3
		c-0.5,0-1.1,0-1.6,0c0-2.4,0-5.4,0-7.7c1,0,1.9,0,2.9,0c0.2-1,0.3-1.9,0.5-2.9c-1.1,0-2.2,0-3.3,0c0-0.8-0.1-1.6,0-2.3
		c0.1-0.7,0.7-1.1,1.4-1.1c0.5,0,1.1,0,1.6,0c0.1,0,0.2,0,0.2,0c0-1,0-1.9,0-2.9c0,0,0,0,0,0c-0.8,0-1.7,0-2.5,0.1
		c-1.8,0.2-3.4,1.8-3.6,3.6c-0.1,0.8,0,1.6-0.1,2.3c0,0.1,0,0.2,0,0.3c-0.9,0-1.9,0-2.8,0c0,1,0,1.9,0,2.9c0.9,0,1.8,0,2.8,0
		c0,2.3,0,5.3,0,7.7c-2.1,0-4.2,0-6.4,0c-2.4,0-4.4-1.8-4.7-4.1c0-0.2-0.1-0.5-0.1-0.8c0-3.6,0-7.1,0-10.7c0-2.4,1.6-4.3,4-4.8
		c0.3-0.1,0.6-0.1,0.9-0.1c3.6,0,7.1,0,10.7,0c2.4,0,4.3,1.6,4.8,4c0.1,0.3,0.1,0.6,0.1,0.9c0,1.8,0,3.6,0,5.3
		C22.2,13.8,22.2,15.6,22.2,17.4z"/>
</g>
</svg>
