<?xml version="1.0" encoding="utf-8"?>
<!-- Generator: Adobe Illustrator 25.2.3, SVG Export Plug-In . SVG Version: 6.00 Build 0)  -->
<svg version="1.1" id="Layer_1" xmlns="http://www.w3.org/2000/svg" xmlns:xlink="http://www.w3.org/1999/xlink" x="0px" y="0px"
	 viewBox="0 0 24 24" style="enable-background:new 0 0 24 24;" xml:space="preserve">
<style type="text/css">
	.st0{fill:#D93856;}
</style>
<g>
	<path class="st0" d="M12,24c-1.8,0-3.6,0-5.3,0c-3.2,0-5.9-2.2-6.6-5.4C0,18.3,0,17.9,0,17.5c0-3.7,0-7.3,0-11C0,3.6,2.1,0.9,5,0.2
		C5.5,0.1,6.1,0,6.7,0c3.6,0,7.2,0,10.7,0c3.2,0,5.9,2.3,6.5,5.4C24,5.8,24,6.2,24,6.6c0,3.6,0,7.2,0,10.9c0,3.1-2.3,5.9-5.4,6.4
		C18.2,24,17.8,24,17.4,24C15.6,24,13.8,24,12,24z M22.2,12c0-1.8,0-3.6,0-5.3c0-0.3,0-0.6-0.1-0.9c-0.4-2.3-2.4-4-4.8-4
		c-3.6,0-7.1,0-10.7,0c-0.3,0-0.6,0-0.9,0.1c-2.3,0.4-4,2.4-4,4.8c0,3.6,0,7.1,0,10.7c0,0.3,0,0.5,0.1,0.8c0.3,2.3,2.4,4.1,4.7,4.1
		c3.6,0,7.2,0,10.9,0c0.6,0,1.2-0.1,1.7-0.3c1.9-0.7,3.1-2.5,3.1-4.5C22.2,15.6,22.2,13.8,22.2,12z"/>
	<path class="st0" d="M18.4,12c0,3.5-2.9,6.4-6.4,6.4c-3.5,0-6.4-2.9-6.4-6.4c0-3.5,2.9-6.4,6.4-6.4C15.5,5.6,18.4,8.5,18.4,12z
		 M12,16.6c2.5,0,4.6-2,4.6-4.6c0-2.5-2-4.6-4.6-4.6c-2.5,0-4.6,2-4.6,4.6C7.4,14.5,9.4,16.6,12,16.6z"/>
	<path class="st0" d="M18.6,6.6c-0.7,0-1.2-0.6-1.2-1.3c0-0.7,0.6-1.2,1.3-1.2c0.7,0,1.2,0.6,1.2,1.3C19.9,6,19.3,6.6,18.6,6.6z"/>
	<path class="st0" d="M12,24c-1.8,0-3.6,0-5.3,0c-3.2,0-5.9-2.2-6.6-5.4C0,18.3,0,17.9,0,17.5c0-3.7,0-7.3,0-11C0,3.6,2.1,0.9,5,0.2
		C5.5,0.1,6.1,0,6.7,0c3.6,0,7.2,0,10.7,0c3.2,0,5.9,2.3,6.5,5.4C24,5.8,24,6.2,24,6.6c0,3.6,0,7.2,0,10.9c0,3.1-2.3,5.9-5.4,6.4
		C18.2,24,17.8,24,17.4,24C15.6,24,13.8,24,12,24z M22.2,12c0-1.8,0-3.6,0-5.3c0-0.3,0-0.6-0.1-0.9c-0.4-2.3-2.4-4-4.8-4
		c-3.6,0-7.1,0-10.7,0c-0.3,0-0.6,0-0.9,0.1c-2.3,0.4-4,2.4-4,4.8c0,3.6,0,7.1,0,10.7c0,0.3,0,0.5,0.1,0.8c0.3,2.3,2.4,4.1,4.7,4.1
		c3.6,0,7.2,0,10.9,0c0.6,0,1.2-0.1,1.7-0.3c1.9-0.7,3.1-2.5,3.1-4.5C22.2,15.6,22.2,13.8,22.2,12z"/>
</g>
</svg>
