<?xml version="1.0" encoding="utf-8"?>
<!-- Generator: Adobe Illustrator 25.2.3, SVG Export Plug-In . SVG Version: 6.00 Build 0)  -->
<svg version="1.1" id="Layer_1" xmlns="http://www.w3.org/2000/svg" xmlns:xlink="http://www.w3.org/1999/xlink" x="0px" y="0px"
	 viewBox="0 0 24 24" style="enable-background:new 0 0 24 24;" xml:space="preserve">
<style type="text/css">
	.st0{fill:#D93856;}
</style>
<path class="st0" d="M0,21.3c2.7,0.3,5.1-0.5,7.2-2.5c-1-0.1-2-0.4-2.8-1.2c-0.8-0.8-1.4-1.8-1.8-3c0.7,0.2,1.5,0.1,2.2-0.1
	c-1.1-0.3-2.1-1-2.8-2.1c-0.7-1.1-1.1-2.4-1.1-3.9c0.7,0.5,1.4,0.7,2.2,0.7C1.9,8.1,1.1,6.6,1,4.7C0.9,3.4,1.1,2.2,1.6,1.1
	c2.7,3.9,6.1,6,10.2,6.3c0-0.2,0-0.3-0.1-0.4c-0.2-1.8,0.1-3.4,1.1-4.8c0.8-1.1,1.7-1.9,2.9-2.1c1.7-0.3,3.1,0.2,4.4,1.7
	c0.1,0.1,0.2,0.1,0.3,0.1c1-0.3,2-0.7,2.9-1.4c0,0,0,0,0.1,0C23,1.9,22.3,3,21.2,3.8c0.5-0.1,0.9-0.2,1.4-0.3
	c0.5-0.2,0.9-0.4,1.4-0.6c0,0.1-0.1,0.1-0.1,0.2c0,0.1-0.1,0.1-0.1,0.2c-0.6,1-1.3,1.9-2.1,2.6c-0.1,0-0.1,0.1-0.1,0.2
	c0,0.8,0,1.7-0.1,2.5c-0.2,2-0.6,3.9-1.3,5.6c-0.7,1.9-1.7,3.6-3,5.1c-1.5,1.7-3.2,3-5.1,3.8c-0.8,0.3-1.7,0.6-2.6,0.7
	C8.7,24,7.8,24,6.9,24C4.4,23.8,2.1,23,0,21.3C0,21.3,0,21.3,0,21.3z"/>
</svg>
